<?xml version="1.0" encoding="UTF-8" standalone="no"?>
<svg
   version="1.1"
   width="595.27557pt"
   height="841.88977pt"
   id="svg2"
   viewBox="0 0 595.27557 841.88977"
   sodipodi:docname="ace-fitness-seeklogo.cdr"
   xmlns:inkscape="http://www.inkscape.org/namespaces/inkscape"
   xmlns:sodipodi="http://sodipodi.sourceforge.net/DTD/sodipodi-0.dtd"
   xmlns="http://www.w3.org/2000/svg"
   xmlns:svg="http://www.w3.org/2000/svg">
  <defs
     id="defs2" />
  <sodipodi:namedview
     id="namedview2"
     pagecolor="#ffffff"
     bordercolor="#000000"
     borderopacity="0.25"
     inkscape:showpageshadow="2"
     inkscape:pageopacity="0.0"
     inkscape:pagecheckerboard="0"
     inkscape:deskcolor="#d1d1d1"
     inkscape:document-units="pt" />
  <path
     d="M 98.8053,343.0835 H 496.463 V 498.8136 H 98.8053 Z"
     style="fill:#ea3d43;fill-rule:evenodd"
     id="path1" />
  <path
     d="m 170.5932,385.3608 c 0.5647,-1.4131 1.9297,-2.5476 3.4887,-2.5714 3.4518,-0.0477 6.9032,0.008 10.355,-0.0238 0.7582,-0.0212 1.5113,0.0739 2.2507,0.2358 -5.4929,12.6136 -10.9806,25.2327 -16.4869,37.8384 6.3891,0.003 12.7755,0.008 19.1645,0 -2.5583,-5.8588 -5.1007,-11.7229 -7.6641,-17.5766 2.5184,-5.7526 5.0424,-11.5027 7.5156,-17.2741 10.6546,24.2599 21.174,48.5806 31.7833,72.8589 -5.0315,0.0133 -10.0604,0.0263 -15.0895,-0.005 -3.4968,-8.0618 -6.9987,-16.121 -10.5327,-24.1641 -10.3949,0 -20.7896,0.008 -31.1842,-0.005 -3.5286,8.0486 -7.0387,16.1053 -10.5273,24.1696 -5.0291,0.0371 -10.061,0.005 -15.0898,0.016 10.6649,-24.5038 21.3488,-48.9967 32.0167,-73.4978 z m 76.8539,-0.2652 c 10.5432,-3.9367 22.8386,-2.8736 32.5047,2.911 4.0587,2.4123 7.7037,5.5567 10.5855,9.3053 -3.2873,3.5074 -6.503,7.0836 -9.7902,10.5909 -2.5321,-3.8999 -6.1904,-7.0784 -10.4559,-8.9501 -4.7852,-2.1342 -10.2833,-2.6218 -15.3656,-1.3494 -4.9416,1.1984 -9.4535,4.0457 -12.6906,7.961 -5.6228,6.6065 -7.1125,16.3786 -3.7112,24.3607 2.1076,5.1378 6.076,9.4722 10.9883,12.0517 3.5339,1.8506 7.5371,2.8419 11.5297,2.7304 7.8655,-0.0317 15.4847,-4.3609 19.6999,-10.9752 3.2978,3.4968 6.5029,7.0811 9.7929,10.5857 -4.6367,6.0099 -11.1716,10.5113 -18.3983,12.8045 -8.115,2.5505 -17.1019,2.3304 -25.0497,-0.7183 -7.7119,-2.9216 -14.3981,-8.4411 -18.7642,-15.432 -5.5406,-8.7375 -7.2055,-19.798 -4.5439,-29.7899 3.0142,-11.8633 12.171,-21.9161 23.6686,-26.0863 z m 55.3035,1.5007 c 1.0975,-2.2428 3.4756,-3.8413 5.9992,-3.8202 16.198,0 32.3987,-0.016 48.5994,0.0106 -0.008,4.6049 0.002,9.2098 -0.005,13.8145 -13.82,0.005 -27.6374,-0.005 -41.4573,0.005 -0.0105,4.5917 0.0133,9.1806 -0.0105,13.7721 -4.6077,-0.008 -9.2123,-0.003 -13.8199,-0.003 -0.016,-6.4657 0.003,-12.9291 -0.008,-19.3922 -0.032,-1.4846 0.005,-3.0381 0.7024,-4.3875 z m 106.5015,-0.3976 c 0.1355,-1.8452 1.8079,-3.4201 3.6648,-3.412 2.3095,-0.005 4.6245,-0.0664 6.9339,0.0317 1.4286,0.0955 2.3936,1.2461 3.3261,2.1951 10.5147,10.5221 21.0457,21.0282 31.5577,31.5502 2.6213,2.5768 2.5887,7.2373 -0.0541,9.7851 -10.6205,10.5882 -21.2085,21.2084 -31.8235,31.7993 -0.4066,0.594 -1.4394,0.3766 -1.4909,-0.3581 -0.6261,-5.2885 -1.2387,-10.5773 -1.8704,-15.8637 6.8472,-6.8212 13.67,-13.6662 20.5199,-20.4847 -10.2654,-10.3125 -20.6148,-20.5429 -30.8286,-30.9058 0.0596,-1.4448 -0.0569,-2.895 0.0651,-4.3371 z m 24.5642,-3.4226 c 1.274,-0.005 2.5508,-0.005 3.8302,0 -0.003,0.1616 -0.003,0.4852 -0.003,0.6468 -0.5068,0 -1.0029,0 -1.4962,0 -0.0109,1.3201 0.005,2.6405 -0.0163,3.9605 -0.1924,-0.0211 -0.5773,-0.0609 -0.7671,-0.0793 -0.1274,-1.2884 -0.0217,-2.585 -0.0542,-3.8758 -0.4961,-0.003 -0.9976,-0.005 -1.4909,-0.005 0,-0.1616 -0.003,-0.4852 -0.003,-0.6468 z m 4.4835,-0.0664 c 0.168,0.032 0.5042,0.0927 0.6722,0.122 0.6208,0.9173 1.0409,1.9566 1.5695,2.9294 0.5692,-0.9517 0.9596,-2.0067 1.5912,-2.9189 0.1572,-0.0344 0.4662,-0.1059 0.6235,-0.1403 0.005,1.5453 0.0108,3.091 -0.003,4.6393 -0.179,-0.003 -0.5286,-0.003 -0.7049,-0.003 -0.005,-1.0179 0.003,-2.0333 -0.0298,-3.0488 -0.4174,0.7583 -0.7535,1.5617 -1.2198,2.2906 -0.1274,-0.005 -0.3822,-0.0106 -0.5096,-0.0157 -0.4392,-0.6894 -0.778,-1.4345 -1.1927,-2.1369 -0.0325,0.9702 -0.0244,1.943 -0.0298,2.9135 -0.1897,0 -0.572,-0.005 -0.7617,-0.005 -0.0163,-1.5429 -0.0108,-3.0856 -0.005,-4.6261 z m -29.0965,12.863 c 4.6352,4.6394 9.2922,9.2548 13.8895,13.9313 -0.0461,3.905 0.0325,7.8098 -0.038,11.7124 -0.1382,3.539 -3.3693,6.6167 -6.9203,6.5108 -15.0281,-0.0263 -30.0534,0.0214 -45.0787,-0.008 -0.7211,0.1087 -1.2177,-0.8614 -0.6533,-1.3572 3.2447,-4.165 6.5598,-8.282 9.7991,-12.4521 9.6717,-0.016 19.3381,0 29.0071,-0.008 -0.0163,-6.1106 -0.003,-12.2187 -0.005,-18.3294 z m -107.1551,18.3318 c 15.755,0.003 31.5131,-0.0105 47.2682,0.008 0.7925,-0.106 1.0208,0.9755 0.525,1.4475 -3.245,4.1224 -6.5084,8.2343 -9.7481,12.3618 -8.0698,0.0158 -16.1395,-0.005 -24.2095,0.0106 0.003,5.7635 0,11.5267 0,17.2928 13.8226,0.045 27.6479,-0.0688 41.4679,0.0556 -0.0133,4.5892 -0.002,9.1754 -0.005,13.7643 -15.3046,0.029 -30.6118,0.005 -45.9164,0.0133 -1.7575,-0.0423 -3.6132,0.2146 -5.2622,-0.5462 -2.4708,-1.0683 -4.1701,-3.6638 -4.1118,-6.3625 -0.0133,-12.6825 0.003,-25.3626 -0.008,-38.0454 z"
     style="fill:#ffffff;fill-rule:evenodd"
     id="path2" />
</svg>
